<svg width="80" height="81" viewBox="0 0 80 81" fill="none" xmlns="http://www.w3.org/2000/svg">
<path d="M12 12.2925H44C46.1217 12.2925 48.1566 13.1353 49.6569 14.6356C51.1571 16.1359 52 18.1707 52 20.2925V60.2925H12C9.87827 60.2925 7.84344 59.4496 6.34315 57.9493C4.84285 56.449 4 54.4142 4 52.2925V20.2925C4 18.1707 4.84285 16.1359 6.34315 14.6356C7.84344 13.1353 9.87827 12.2925 12 12.2925Z" fill="#3D8AFF"/>
<path d="M52 28.2925H63.056C64.5413 28.2933 65.997 28.7075 67.2602 29.4889C68.5234 30.2703 69.5441 31.3878 70.208 32.7165L75.152 42.6045C75.7103 43.7138 76.0007 44.9386 76 46.1805V52.2925C76 54.4142 75.1571 56.449 73.6568 57.9493C72.1566 59.4496 70.1217 60.2925 68 60.2925H52V28.2925Z" fill="#005AAA"/>
<path d="M52 44.2925H67.408C67.6803 44.2923 67.9481 44.2227 68.186 44.0901C68.4239 43.9576 68.624 43.7665 68.7674 43.535C68.9108 43.3035 68.9927 43.0392 69.0054 42.7672C69.0181 42.4951 68.9612 42.2244 68.84 41.9805L65.104 34.5005C64.7715 33.8369 64.2609 33.2789 63.6294 32.889C62.9978 32.499 62.2702 32.2925 61.528 32.2925H52V44.2925Z" fill="white"/>
<path d="M33.688 27.1325L28.712 24.6525C28.4908 24.5425 28.2471 24.4853 28 24.4853C27.7529 24.4853 27.5092 24.5425 27.288 24.6525L22.312 27.1325C22.0681 27.2537 21.7974 27.3106 21.5253 27.2979C21.2533 27.2852 20.989 27.2032 20.7575 27.0599C20.526 26.9165 20.3349 26.7164 20.2024 26.4785C20.0698 26.2406 20.0001 25.9728 20 25.7005V12.2925H36V25.7005C35.9999 25.9728 35.9302 26.2406 35.7976 26.4785C35.6651 26.7164 35.474 26.9165 35.2425 27.0599C35.011 27.2032 34.7467 27.2852 34.4747 27.2979C34.2026 27.3106 33.9319 27.2537 33.688 27.1325Z" fill="#FFD66B"/>
<path d="M64 68.2925C68.4183 68.2925 72 64.7108 72 60.2925C72 55.8742 68.4183 52.2925 64 52.2925C59.5817 52.2925 56 55.8742 56 60.2925C56 64.7108 59.5817 68.2925 64 68.2925Z" fill="#FFD66B"/>
<path d="M64 62.2925C65.1046 62.2925 66 61.3971 66 60.2925C66 59.1879 65.1046 58.2925 64 58.2925C62.8954 58.2925 62 59.1879 62 60.2925C62 61.3971 62.8954 62.2925 64 62.2925Z" fill="white"/>
<path d="M27.696 68.2925C32.1143 68.2925 35.696 64.7108 35.696 60.2925C35.696 55.8742 32.1143 52.2925 27.696 52.2925C23.2777 52.2925 19.696 55.8742 19.696 60.2925C19.696 64.7108 23.2777 68.2925 27.696 68.2925Z" fill="#FFD66B"/>
<path d="M27.696 62.2925C28.8006 62.2925 29.696 61.3971 29.696 60.2925C29.696 59.1879 28.8006 58.2925 27.696 58.2925C26.5914 58.2925 25.696 59.1879 25.696 60.2925C25.696 61.3971 26.5914 62.2925 27.696 62.2925Z" fill="white"/>
</svg>
