<svg width="1207" height="294" viewBox="0 0 1207 294" fill="none" xmlns="http://www.w3.org/2000/svg">
<path d="M1206.14 292.409C1206.07 291.917 1205.65 291.54 1205.15 291.533C1203.36 291.504 1198.99 290.925 1194.59 286.525C1188.37 280.301 1185.44 279.208 1181.58 279.208C1177.35 279.208 1172.73 281.495 1168.58 285.649C1164.37 289.854 1161.13 291.49 1157.01 291.49C1152.8 291.49 1148.5 287.828 1146.32 285.649C1144.09 283.42 1138.5 279.208 1133.31 279.208C1128.84 279.208 1124.51 282.472 1121.03 285.092L1120.41 285.555C1119.74 286.054 1119.11 286.583 1118.49 287.097C1115.95 289.217 1113.53 291.229 1108.81 291.468C1108.28 291.497 1107.85 291.946 1107.85 292.481C1107.85 293.068 1108.34 293.531 1108.93 293.502C1114.33 293.219 1117.22 290.802 1119.79 288.66C1120.42 288.139 1121 287.647 1121.63 287.183L1122.25 286.713C1125.48 284.274 1129.51 281.241 1133.3 281.241C1137.02 281.241 1142.03 284.252 1144.87 287.082C1147.27 289.485 1152.05 293.523 1157 293.523C1161.66 293.523 1165.43 291.656 1170.01 287.082C1173.78 283.311 1177.89 281.241 1181.58 281.241C1184.5 281.241 1186.89 281.712 1193.14 287.965C1198.03 292.858 1202.94 293.545 1205.12 293.574C1205.75 293.589 1206.23 293.031 1206.14 292.409Z" fill="#FFD66B"/>
<path d="M1206.14 268.583C1206.07 268.091 1205.65 267.715 1205.15 267.707C1203.36 267.679 1198.99 267.1 1194.59 262.699C1188.37 256.475 1185.44 255.382 1181.58 255.382C1177.35 255.382 1172.73 257.669 1168.58 261.823C1164.37 266.028 1161.13 267.664 1157.01 267.664C1152.8 267.664 1148.5 264.002 1146.32 261.823C1144.09 259.594 1138.5 255.382 1133.31 255.382C1128.84 255.382 1124.51 258.646 1121.03 261.266L1120.41 261.729C1119.74 262.229 1119.11 262.757 1118.49 263.271C1115.95 265.391 1113.53 267.403 1108.81 267.642C1108.28 267.671 1107.85 268.12 1107.85 268.656C1107.85 269.242 1108.34 269.705 1108.93 269.676C1114.33 269.394 1117.22 266.976 1119.79 264.834C1120.42 264.313 1121 263.821 1121.63 263.358L1122.25 262.887C1125.48 260.448 1129.51 257.416 1133.3 257.416C1137.02 257.416 1142.03 260.427 1144.87 263.256C1147.27 265.659 1152.05 269.698 1157 269.698C1161.66 269.698 1165.43 267.831 1170.01 263.256C1173.78 259.486 1177.89 257.416 1181.58 257.416C1184.5 257.416 1186.89 257.886 1193.14 264.139C1198.03 269.025 1202.94 269.712 1205.12 269.748C1205.75 269.763 1206.23 269.206 1206.14 268.583Z" fill="#FFD66B"/>
<path d="M1108.93 245.857C1114.33 245.575 1117.22 243.158 1119.79 241.016C1120.42 240.495 1121 240.002 1121.63 239.539L1122.25 239.069C1125.48 236.63 1129.51 233.597 1133.3 233.597C1137.02 233.597 1142.03 236.608 1144.87 239.438C1147.27 241.841 1152.05 245.879 1157 245.879C1161.66 245.879 1165.43 244.012 1170.01 239.438C1173.78 235.667 1177.88 233.597 1181.58 233.597C1184.5 233.597 1186.89 234.068 1193.14 240.321C1198.03 245.206 1202.94 245.894 1205.12 245.93C1205.75 245.937 1206.23 245.38 1206.14 244.765C1206.07 244.272 1205.65 243.896 1205.15 243.889C1203.36 243.86 1198.99 243.281 1194.59 238.881C1188.37 232.656 1185.43 231.563 1181.58 231.563C1177.35 231.563 1172.73 233.851 1168.58 238.005C1164.37 242.21 1161.13 243.845 1157.01 243.845C1152.8 243.845 1148.5 240.183 1146.32 238.005C1144.09 235.776 1138.5 231.563 1133.31 231.563C1128.84 231.563 1124.51 234.828 1121.02 237.448L1120.41 237.911C1119.74 238.41 1119.11 238.938 1118.49 239.452C1115.95 241.573 1113.53 243.585 1108.81 243.824C1108.28 243.853 1107.85 244.301 1107.85 244.837C1107.85 245.423 1108.35 245.886 1108.93 245.857Z" fill="#FFD66B"/>
<path d="M9.61339 5.61299L1.49743 0.447427C0.849191 0.0326269 0 0.49927 0 1.27054V12.3341C0 13.1312 0.901055 13.5849 1.54281 13.1183L9.65877 7.22034C10.2227 6.81202 10.1968 5.98242 9.61339 5.61299Z" fill="#DCE0E2"/>
<path d="M29.2757 5.61299L21.1597 0.447427C20.5115 0.0326269 19.6623 0.49927 19.6623 1.27054V12.3341C19.6623 13.1312 20.5633 13.5849 21.2051 13.1183L29.321 7.22034C29.8785 6.81202 29.8526 5.98242 29.2757 5.61299Z" fill="#DCE0E2"/>
<path d="M48.9353 5.61299L40.8193 0.447427C40.1711 0.0326269 39.3219 0.49927 39.3219 1.27054V12.3341C39.3219 13.1312 40.223 13.5849 40.8647 13.1183L48.9807 7.22034C49.5381 6.81202 49.5122 5.98242 48.9353 5.61299Z" fill="#DCE0E2"/>
<path d="M68.5968 5.61299L60.4808 0.447427C59.8326 0.0326269 58.9834 0.49927 58.9834 1.27054V12.3341C58.9834 13.1312 59.8844 13.5849 60.5262 13.1183L68.6422 7.22034C69.1996 6.81202 69.1737 5.98242 68.5968 5.61299Z" fill="#DCE0E2"/>
<path d="M88.2584 5.61299L80.1424 0.447427C79.4942 0.0326269 78.645 0.49927 78.645 1.27054V12.3341C78.645 13.1312 79.5461 13.5849 80.1878 13.1183L88.3038 7.22034C88.8613 6.81202 88.8353 5.98242 88.2584 5.61299Z" fill="#DCE0E2"/>
</svg>
