<svg width="261" height="100" viewBox="0 0 261 100" fill="none" xmlns="http://www.w3.org/2000/svg">
<path d="M10.3417 59.7236L1.61088 54.1667C0.913529 53.7205 0 54.2225 0 55.0522V66.9539C0 67.8115 0.969322 68.2996 1.6597 67.7975L10.3906 61.4527C10.9973 61.0135 10.9694 60.121 10.3417 59.7236Z" fill="#FFD66B"/>
<path d="M31.4937 59.7236L22.7629 54.1667C22.0655 53.7205 21.152 54.2225 21.152 55.0522V66.9539C21.152 67.8115 22.1213 68.2996 22.8117 67.7975L31.5425 61.4527C32.1422 61.0135 32.1143 60.121 31.4937 59.7236Z" fill="#FFD66B"/>
<path d="M52.6428 59.7236L43.9119 54.1667C43.2146 53.7205 42.301 54.2225 42.301 55.0522V66.9539C42.301 67.8115 43.2703 68.2996 43.9607 67.7975L52.6916 61.4527C53.2913 61.0135 53.2634 60.121 52.6428 59.7236Z" fill="#FFD66B"/>
<path d="M73.7939 59.7236L65.063 54.1667C64.3657 53.7205 63.4521 54.2225 63.4521 55.0522V66.9539C63.4521 67.8115 64.4214 68.2996 65.1118 67.7975L73.8427 61.4527C74.4424 61.0135 74.4145 60.121 73.7939 59.7236Z" fill="#FFD66B"/>
<path d="M94.9453 59.7236L86.2144 54.1667C85.517 53.7205 84.6035 54.2225 84.6035 55.0522V66.9539C84.6035 67.8115 85.5728 68.2996 86.2632 67.7975L94.9941 61.4527C95.5938 61.0135 95.5659 60.121 94.9453 59.7236Z" fill="#FFD66B"/>
<path d="M199.832 9.35003C206.491 4.51179 215.509 4.5118 222.168 9.35004L246.209 26.8172C252.869 31.6554 255.655 40.2314 253.111 48.0598L243.928 76.3222C241.385 84.1506 234.09 89.4509 225.858 89.4509H196.142C187.91 89.4509 180.615 84.1506 178.072 76.3222L168.889 48.0598C166.345 40.2313 169.131 31.6554 175.791 26.8171L199.832 9.35003Z" stroke="#E2001A" stroke-width="2"/>
</svg>
