<svg width="283" height="173" viewBox="0 0 283 173" fill="none" xmlns="http://www.w3.org/2000/svg">
<path d="M273 105.292C278.523 105.292 283.076 109.794 282.255 115.255C281.447 120.626 279.988 125.892 277.9 130.932C274.533 139.061 269.598 146.447 263.376 152.669C257.155 158.89 249.769 163.825 241.64 167.192C236.599 169.28 231.334 170.74 225.963 171.548C220.502 172.369 216 167.815 216 162.292L216 115.292C216 109.77 220.477 105.292 226 105.292H273Z" fill="#FFD66B"/>
<path d="M40.5455 30.7925C47.8586 18.1258 66.1414 18.1258 73.4545 30.7925L88.1769 56.2925C95.49 68.9591 86.3486 84.7925 71.7224 84.7925H42.2776C27.6514 84.7925 18.51 68.9591 25.8231 56.2925L40.5455 30.7925Z" stroke="#E2001A" stroke-width="2"/>
</svg>
