<svg width="1789" height="80" viewBox="0 0 1789 80" fill="none" xmlns="http://www.w3.org/2000/svg">
<path d="M1734.17 0.102295C1732.82 0.102295 1731.72 1.19763 1731.72 2.55221C1731.72 3.90679 1732.82 5.00213 1734.17 5.00213C1735.53 5.00213 1736.62 3.90679 1736.62 2.55221C1736.62 1.19763 1735.53 0.102295 1734.17 0.102295Z" fill="#005AAA"/>
<path d="M1751.34 0.102295C1749.98 0.102295 1748.89 1.19763 1748.89 2.55221C1748.89 3.90679 1749.98 5.00213 1751.34 5.00213C1752.69 5.00213 1753.79 3.90679 1753.79 2.55221C1753.79 1.19763 1752.69 0.102295 1751.34 0.102295Z" fill="#005AAA"/>
<path d="M1768.5 0.102295C1767.15 0.102295 1766.05 1.19763 1766.05 2.55221C1766.05 3.90679 1767.15 5.00213 1768.5 5.00213C1769.86 5.00213 1770.95 3.90679 1770.95 2.55221C1770.95 1.19763 1769.86 0.102295 1768.5 0.102295Z" fill="#005AAA"/>
<path d="M1785.67 5.00847C1787.02 5.00847 1788.12 3.91314 1788.12 2.55856C1788.12 1.20397 1787.02 0.108643 1785.67 0.108643C1784.31 0.108643 1783.22 1.20397 1783.22 2.55856C1783.22 3.91314 1784.31 5.00847 1785.67 5.00847Z" fill="#005AAA"/>
<path d="M1734.17 17.2646C1732.82 17.2646 1731.72 18.36 1731.72 19.7146C1731.72 21.0691 1732.82 22.1645 1734.17 22.1645C1735.53 22.1645 1736.62 21.0691 1736.62 19.7146C1736.63 18.36 1735.53 17.2646 1734.17 17.2646Z" fill="#005AAA"/>
<path d="M1751.34 17.2646C1749.98 17.2646 1748.89 18.36 1748.89 19.7146C1748.89 21.0691 1749.98 22.1645 1751.34 22.1645C1752.69 22.1645 1753.79 21.0691 1753.79 19.7146C1753.79 18.36 1752.69 17.2646 1751.34 17.2646Z" fill="#005AAA"/>
<path d="M1768.5 17.2646C1767.15 17.2646 1766.05 18.36 1766.05 19.7146C1766.05 21.0691 1767.15 22.1645 1768.5 22.1645C1769.86 22.1645 1770.95 21.0691 1770.95 19.7146C1770.95 18.36 1769.86 17.2646 1768.5 17.2646Z" fill="#005AAA"/>
<path d="M1785.67 17.2646C1784.31 17.2646 1783.22 18.36 1783.22 19.7146C1783.22 21.0691 1784.31 22.1645 1785.67 22.1645C1787.02 22.1645 1788.12 21.0691 1788.12 19.7146C1788.12 18.36 1787.02 17.2646 1785.67 17.2646Z" fill="#005AAA"/>
<path d="M1734.17 34.427C1732.82 34.427 1731.72 35.5223 1731.72 36.8769C1731.72 38.2315 1732.82 39.3268 1734.17 39.3268C1735.53 39.3268 1736.62 38.2315 1736.62 36.8769C1736.63 35.5223 1735.53 34.427 1734.17 34.427Z" fill="#005AAA"/>
<path d="M1751.34 34.427C1749.98 34.427 1748.89 35.5223 1748.89 36.8769C1748.89 38.2315 1749.98 39.3268 1751.34 39.3268C1752.69 39.3268 1753.79 38.2315 1753.79 36.8769C1753.79 35.5223 1752.69 34.427 1751.34 34.427Z" fill="#005AAA"/>
<path d="M1768.5 34.427C1767.15 34.427 1766.05 35.5223 1766.05 36.8769C1766.05 38.2315 1767.15 39.3268 1768.5 39.3268C1769.86 39.3268 1770.95 38.2315 1770.95 36.8769C1770.95 35.5223 1769.86 34.427 1768.5 34.427Z" fill="#005AAA"/>
<path d="M1785.67 34.427C1784.31 34.427 1783.22 35.5223 1783.22 36.8769C1783.22 38.2315 1784.31 39.3268 1785.67 39.3268C1787.02 39.3268 1788.12 38.2315 1788.12 36.8769C1788.12 35.5223 1787.02 34.427 1785.67 34.427Z" fill="#005AAA"/>
<path d="M1734.17 51.583C1732.82 51.583 1731.72 52.6783 1731.72 54.0329C1731.72 55.3875 1732.82 56.4828 1734.17 56.4828C1735.53 56.4828 1736.62 55.3875 1736.62 54.0329C1736.63 52.6848 1735.53 51.583 1734.17 51.583Z" fill="#005AAA"/>
<path d="M1751.34 51.583C1749.98 51.583 1748.89 52.6783 1748.89 54.0329C1748.89 55.3875 1749.98 56.4828 1751.34 56.4828C1752.69 56.4828 1753.79 55.3875 1753.79 54.0329C1753.79 52.6848 1752.69 51.583 1751.34 51.583Z" fill="#005AAA"/>
<path d="M1768.5 51.583C1767.15 51.583 1766.05 52.6783 1766.05 54.0329C1766.05 55.3875 1767.15 56.4828 1768.5 56.4828C1769.86 56.4828 1770.95 55.3875 1770.95 54.0329C1770.95 52.6848 1769.86 51.583 1768.5 51.583Z" fill="#005AAA"/>
<path d="M1785.67 51.583C1784.31 51.583 1783.22 52.6783 1783.22 54.0329C1783.22 55.3875 1784.31 56.4828 1785.67 56.4828C1787.02 56.4828 1788.12 55.3875 1788.12 54.0329C1788.12 52.6848 1787.02 51.583 1785.67 51.583Z" fill="#005AAA"/>
<path d="M40.3423 29.083C45.8651 29.083 50.4428 33.6038 49.3456 39.0165C48.7086 42.159 47.7692 45.2405 46.5363 48.2172C44.0235 54.2835 40.3406 59.7954 35.6976 64.4383C31.0547 69.0813 25.5427 72.7642 19.4765 75.277C16.4998 76.5099 13.4183 77.4493 10.2758 78.0863C4.86305 79.1836 0.342285 74.6059 0.342286 69.083L0.342287 39.083C0.342287 33.5602 4.81944 29.083 10.3423 29.083H40.3423Z" fill="#FFD66B"/>
</svg>
