<svg width="662" height="488" viewBox="0 0 662 488" fill="none" xmlns="http://www.w3.org/2000/svg">
<path d="M98.288 486.138C98.2156 485.646 97.803 485.269 97.3036 485.262C95.5083 485.233 91.1434 484.654 86.7422 480.254C80.5169 474.03 77.5853 472.937 73.7343 472.937C69.4996 472.937 64.8813 475.224 60.7263 479.378C56.5206 483.583 53.2776 485.219 49.1588 485.219C44.9459 485.219 40.6533 481.557 38.4672 479.378C36.2377 477.149 30.6494 472.937 25.4592 472.937C20.9857 472.937 16.6569 476.201 13.1751 478.821L12.5598 479.284C11.8939 479.783 11.2568 480.312 10.6415 480.826C8.10075 482.946 5.68302 484.958 0.963373 485.197C0.427707 485.226 0.000610352 485.675 0.000610352 486.21C0.000610352 486.797 0.492881 487.26 1.07922 487.231C6.4793 486.948 9.37476 484.531 11.9445 482.389C12.567 481.868 13.1534 481.376 13.7759 480.912L14.3984 480.442C17.6341 478.003 21.6589 474.97 25.452 474.97C29.1654 474.97 34.1819 477.981 37.0194 480.811C39.4227 483.214 44.2003 487.252 49.1516 487.252C53.8133 487.252 57.5846 485.385 62.1595 480.811C65.9309 477.04 70.0353 474.97 73.727 474.97C76.6515 474.97 79.0402 475.441 85.2945 481.694C90.1806 486.587 95.0885 487.274 97.2746 487.303C97.8971 487.318 98.3821 486.76 98.288 486.138Z" fill="#FFD66B"/>
<path d="M98.288 462.312C98.2156 461.82 97.803 461.444 97.3036 461.436C95.5083 461.408 91.1434 460.829 86.7422 456.428C80.5169 450.204 77.5853 449.111 73.7343 449.111C69.4996 449.111 64.8813 451.398 60.7263 455.552C56.5206 459.757 53.2776 461.393 49.1588 461.393C44.9459 461.393 40.6533 457.731 38.4672 455.552C36.2377 453.323 30.6494 449.111 25.4592 449.111C20.9857 449.111 16.6569 452.375 13.1751 454.995L12.5598 455.458C11.8939 455.958 11.2568 456.486 10.6415 457C8.10075 459.12 5.68302 461.133 0.963373 461.371C0.427707 461.4 0.000610352 461.849 0.000610352 462.385C0.000610352 462.971 0.492881 463.434 1.07922 463.405C6.4793 463.123 9.37476 460.705 11.9445 458.563C12.567 458.042 13.1534 457.55 13.7759 457.087L14.3984 456.616C17.6341 454.177 21.6589 451.145 25.452 451.145C29.1654 451.145 34.1819 454.156 37.0194 456.985C39.4227 459.388 44.2003 463.427 49.1516 463.427C53.8133 463.427 57.5846 461.56 62.1595 456.985C65.9309 453.215 70.0353 451.145 73.727 451.145C76.6515 451.145 79.0402 451.615 85.2945 457.868C90.1806 462.754 95.0885 463.441 97.2746 463.477C97.8971 463.492 98.3821 462.935 98.288 462.312Z" fill="#FFD66B"/>
<path d="M1.07861 439.586C6.47869 439.304 9.37415 436.887 11.9439 434.745C12.5664 434.224 13.1528 433.731 13.7753 433.268L14.3978 432.798C17.6335 430.359 21.6583 427.326 25.4514 427.326C29.1648 427.326 34.1813 430.337 37.0188 433.167C39.4221 435.57 44.1997 439.608 49.1509 439.608C53.8127 439.608 57.584 437.741 62.1589 433.167C65.9303 429.396 70.0347 427.326 73.7264 427.326C76.6509 427.326 79.0396 427.797 85.2939 434.05C90.18 438.935 95.0879 439.623 97.274 439.659C97.8965 439.666 98.3815 439.109 98.2874 438.494C98.215 438.001 97.8024 437.625 97.3029 437.618C95.5077 437.589 91.1428 437.01 86.7416 432.61C80.5163 426.385 77.5847 425.292 73.7337 425.292C69.499 425.292 64.8807 427.58 60.7257 431.734C56.52 435.939 53.277 437.574 49.1582 437.574C44.9453 437.574 40.6527 433.912 38.4666 431.734C36.2371 429.505 30.6488 425.292 25.4586 425.292C20.9851 425.292 16.6563 428.557 13.1745 431.177L12.5592 431.64C11.8932 432.139 11.2562 432.667 10.6409 433.181C8.10014 435.302 5.68241 437.314 0.962762 437.553C0.427097 437.582 0 438.03 0 438.566C0 439.152 0.499509 439.615 1.07861 439.586Z" fill="#FFD66B"/>
<path d="M582.613 5.61299L574.497 0.447427C573.849 0.0326269 573 0.49927 573 1.27054V12.3341C573 13.1312 573.901 13.5849 574.543 13.1183L582.659 7.22034C583.223 6.81202 583.197 5.98242 582.613 5.61299Z" fill="#DCE0E2"/>
<path d="M602.276 5.61299L594.16 0.447427C593.511 0.0326269 592.662 0.49927 592.662 1.27054V12.3341C592.662 13.1312 593.563 13.5849 594.205 13.1183L602.321 7.22034C602.879 6.81202 602.853 5.98242 602.276 5.61299Z" fill="#DCE0E2"/>
<path d="M621.935 5.61299L613.819 0.447427C613.171 0.0326269 612.322 0.49927 612.322 1.27054V12.3341C612.322 13.1312 613.223 13.5849 613.865 13.1183L621.981 7.22034C622.538 6.81202 622.512 5.98242 621.935 5.61299Z" fill="#DCE0E2"/>
<path d="M641.597 5.61299L633.481 0.447427C632.833 0.0326269 631.983 0.49927 631.983 1.27054V12.3341C631.983 13.1312 632.884 13.5849 633.526 13.1183L641.642 7.22034C642.2 6.81202 642.174 5.98242 641.597 5.61299Z" fill="#DCE0E2"/>
<path d="M661.258 5.61299L653.142 0.447427C652.494 0.0326269 651.645 0.49927 651.645 1.27054V12.3341C651.645 13.1312 652.546 13.5849 653.188 13.1183L661.304 7.22034C661.861 6.81202 661.835 5.98242 661.258 5.61299Z" fill="#DCE0E2"/>
</svg>
