<svg width="247" height="155" viewBox="0 0 247 155" fill="none" xmlns="http://www.w3.org/2000/svg">
<path d="M237 104.292C242.523 104.292 247.101 108.813 246.003 114.226C245.366 117.369 244.427 120.45 243.194 123.427C240.681 129.493 236.998 135.005 232.355 139.648C227.712 144.291 222.2 147.974 216.134 150.486C213.158 151.719 210.076 152.659 206.934 153.296C201.521 154.393 197 149.815 197 144.292L197 114.292C197 108.77 201.477 104.292 207 104.292H237Z" fill="#E5E5E5"/>
<path d="M98.288 61.1379C98.2156 60.6457 97.803 60.2694 97.3035 60.2622C95.5083 60.2332 91.1434 59.6542 86.7422 55.2538C80.5169 49.0296 77.5853 47.9368 73.7343 47.9368C69.4996 47.9368 64.8813 50.2238 60.7263 54.3781C56.5206 58.5831 53.2776 60.2187 49.1588 60.2187C44.9459 60.2187 40.6533 56.5566 38.4672 54.3781C36.2377 52.149 30.6494 47.9368 25.4592 47.9368C20.9857 47.9368 16.6569 51.2009 13.1751 53.8208L12.5598 54.284C11.8939 54.7834 11.2568 55.3117 10.6415 55.8256C8.10075 57.9462 5.68302 59.9582 0.963373 60.197C0.427707 60.226 0.000610352 60.6747 0.000610352 61.2103C0.000610352 61.7965 0.492881 62.2597 1.07922 62.2308C6.4793 61.9485 9.37476 59.5312 11.9445 57.3889C12.567 56.8678 13.1534 56.3756 13.7759 55.9124L14.3984 55.442C17.6341 53.003 21.6589 49.9705 25.452 49.9705C29.1654 49.9705 34.1819 52.9813 37.0194 55.8111C39.4227 58.214 44.2003 62.2525 49.1516 62.2525C53.8133 62.2525 57.5846 60.3852 62.1595 55.8111C65.9309 52.0404 70.0353 49.9705 73.727 49.9705C76.6515 49.9705 79.0402 50.4409 85.2945 56.6941C90.1806 61.5866 95.0885 62.2742 97.2746 62.3031C97.8971 62.3176 98.3821 61.7603 98.288 61.1379Z" fill="#FFD66B"/>
<path d="M98.288 37.3121C98.2156 36.8199 97.803 36.4436 97.3035 36.4364C95.5083 36.4074 91.1434 35.8284 86.7422 31.428C80.5169 25.2038 77.5853 24.111 73.7343 24.111C69.4996 24.111 64.8813 26.398 60.7263 30.5523C56.5206 34.7573 53.2776 36.3929 49.1588 36.3929C44.9459 36.3929 40.6533 32.7308 38.4672 30.5523C36.2377 28.3232 30.6494 24.111 25.4592 24.111C20.9857 24.111 16.6569 27.3751 13.1751 29.995L12.5598 30.4582C11.8939 30.9576 11.2568 31.4859 10.6415 31.9998C8.10075 34.1204 5.68302 36.1324 0.963373 36.3712C0.427707 36.4002 0.000610352 36.8489 0.000610352 37.3845C0.000610352 37.9707 0.492881 38.4339 1.07922 38.405C6.4793 38.1227 9.37476 35.7054 11.9445 33.5631C12.567 33.042 13.1534 32.5498 13.7759 32.0866L14.3984 31.6162C17.6341 29.1772 21.6589 26.1447 25.452 26.1447C29.1654 26.1447 34.1819 29.1555 37.0194 31.9853C39.4227 34.3882 44.2003 38.4267 49.1516 38.4267C53.8133 38.4267 57.5846 36.5594 62.1595 31.9853C65.9309 28.2146 70.0353 26.1447 73.727 26.1447C76.6515 26.1447 79.0402 26.6151 85.2945 32.8683C90.1806 37.7536 95.0885 38.4411 97.2746 38.4773C97.8971 38.4918 98.3821 37.9345 98.288 37.3121Z" fill="#FFD66B"/>
<path d="M1.07861 14.5865C6.47869 14.3042 9.37415 11.8869 11.9439 9.7446C12.5664 9.22351 13.1528 8.73136 13.7753 8.26816L14.3978 7.79773C17.6335 5.3587 21.6583 2.32621 25.4514 2.32621C29.1648 2.32621 34.1813 5.33699 37.0188 8.16684C39.4221 10.5697 44.1997 14.6082 49.1509 14.6082C53.8127 14.6082 57.584 12.7409 62.1589 8.16684C65.9303 4.39612 70.0347 2.32621 73.7264 2.32621C76.6509 2.32621 79.0396 2.79664 85.2939 9.04981C90.18 13.9351 95.0879 14.6226 97.274 14.6588C97.8965 14.6661 98.3815 14.1088 98.2874 13.4936C98.215 13.0015 97.8024 12.6251 97.3029 12.6179C95.5077 12.5889 91.1428 12.0099 86.7416 7.60956C80.5163 1.38534 77.5847 0.29248 73.7337 0.29248C69.499 0.29248 64.8807 2.57951 60.7257 6.73382C56.52 10.9388 53.277 12.5744 49.1582 12.5744C44.9453 12.5744 40.6527 8.91229 38.4666 6.73382C36.2371 4.50468 30.6488 0.29248 25.4586 0.29248C20.9851 0.29248 16.6563 3.55657 13.1745 6.17654L12.5592 6.63973C11.8932 7.13912 11.2562 7.66745 10.6409 8.18131C8.10014 10.3019 5.68241 12.3139 0.962762 12.5527C0.427097 12.5817 0 13.0304 0 13.566C0 14.1522 0.499509 14.6154 1.07861 14.5865Z" fill="#FFD66B"/>
</svg>
