<svg width="267" height="218" viewBox="0 0 267 218" fill="none" xmlns="http://www.w3.org/2000/svg">
<path d="M212.45 161.292C211.095 161.292 210 162.388 210 163.742C210 165.097 211.095 166.192 212.45 166.192C213.805 166.192 214.9 165.097 214.9 163.742C214.9 162.388 213.805 161.292 212.45 161.292Z" fill="#005AAA"/>
<path d="M229.616 161.292C228.261 161.292 227.166 162.388 227.166 163.742C227.166 165.097 228.261 166.192 229.616 166.192C230.97 166.192 232.065 165.097 232.065 163.742C232.065 162.388 230.97 161.292 229.616 161.292Z" fill="#005AAA"/>
<path d="M246.781 161.292C245.427 161.292 244.331 162.388 244.331 163.742C244.331 165.097 245.427 166.192 246.781 166.192C248.136 166.192 249.231 165.097 249.231 163.742C249.231 162.388 248.136 161.292 246.781 161.292Z" fill="#005AAA"/>
<path d="M263.947 166.199C265.301 166.199 266.397 165.103 266.397 163.749C266.397 162.394 265.301 161.299 263.947 161.299C262.592 161.299 261.497 162.394 261.497 163.749C261.497 165.103 262.592 166.199 263.947 166.199Z" fill="#005AAA"/>
<path d="M212.45 178.455C211.095 178.455 210 179.55 210 180.905C210 182.26 211.095 183.355 212.45 183.355C213.804 183.355 214.9 182.26 214.9 180.905C214.906 179.55 213.804 178.455 212.45 178.455Z" fill="#005AAA"/>
<path d="M229.616 178.455C228.261 178.455 227.166 179.55 227.166 180.905C227.166 182.259 228.261 183.355 229.616 183.355C230.97 183.355 232.065 182.259 232.065 180.905C232.065 179.55 230.97 178.455 229.616 178.455Z" fill="#005AAA"/>
<path d="M246.781 178.455C245.427 178.455 244.331 179.55 244.331 180.905C244.331 182.259 245.427 183.355 246.781 183.355C248.136 183.355 249.231 182.259 249.231 180.905C249.231 179.55 248.136 178.455 246.781 178.455Z" fill="#005AAA"/>
<path d="M263.947 178.455C262.592 178.455 261.497 179.55 261.497 180.905C261.497 182.259 262.592 183.355 263.947 183.355C265.301 183.355 266.397 182.259 266.397 180.905C266.397 179.55 265.301 178.455 263.947 178.455Z" fill="#005AAA"/>
<path d="M212.45 195.617C211.095 195.617 210 196.713 210 198.067C210 199.422 211.095 200.517 212.45 200.517C213.804 200.517 214.9 199.422 214.9 198.067C214.906 196.713 213.804 195.617 212.45 195.617Z" fill="#005AAA"/>
<path d="M229.616 195.617C228.261 195.617 227.166 196.713 227.166 198.067C227.166 199.422 228.261 200.517 229.616 200.517C230.97 200.517 232.065 199.422 232.065 198.067C232.065 196.713 230.97 195.617 229.616 195.617Z" fill="#005AAA"/>
<path d="M246.781 195.617C245.427 195.617 244.331 196.713 244.331 198.067C244.331 199.422 245.427 200.517 246.781 200.517C248.136 200.517 249.231 199.422 249.231 198.067C249.231 196.713 248.136 195.617 246.781 195.617Z" fill="#005AAA"/>
<path d="M263.947 195.617C262.592 195.617 261.497 196.713 261.497 198.067C261.497 199.422 262.592 200.517 263.947 200.517C265.301 200.517 266.397 199.422 266.397 198.067C266.397 196.713 265.301 195.617 263.947 195.617Z" fill="#005AAA"/>
<path d="M212.45 212.773C211.095 212.773 210 213.869 210 215.223C210 216.578 211.095 217.673 212.45 217.673C213.804 217.673 214.9 216.578 214.9 215.223C214.906 213.875 213.804 212.773 212.45 212.773Z" fill="#005AAA"/>
<path d="M229.616 212.773C228.261 212.773 227.166 213.869 227.166 215.223C227.166 216.578 228.261 217.673 229.616 217.673C230.97 217.673 232.065 216.578 232.065 215.223C232.065 213.875 230.97 212.773 229.616 212.773Z" fill="#005AAA"/>
<path d="M246.781 212.773C245.427 212.773 244.331 213.869 244.331 215.223C244.331 216.578 245.427 217.673 246.781 217.673C248.136 217.673 249.231 216.578 249.231 215.223C249.231 213.875 248.136 212.773 246.781 212.773Z" fill="#005AAA"/>
<path d="M263.947 212.773C262.592 212.773 261.497 213.869 261.497 215.223C261.497 216.578 262.592 217.673 263.947 217.673C265.301 217.673 266.397 216.578 266.397 215.223C266.397 213.875 265.301 212.773 263.947 212.773Z" fill="#005AAA"/>
<path d="M74.0396 50.0866L31.3499 3.71931C27.9439 0.00187188 21.7747 1.5042 20.4709 6.37004L1.7685 76.1683C0.420881 81.1977 5.36292 85.5897 10.2179 83.7352L71.6098 60.3042C75.8322 58.6746 77.0705 53.3968 74.0396 50.0866Z" fill="#DCE0E2"/>
</svg>
