<svg width="1788" height="587" viewBox="0 0 1788 587" fill="none" xmlns="http://www.w3.org/2000/svg">
<path d="M1733.83 507.102C1732.47 507.102 1731.38 508.198 1731.38 509.552C1731.38 510.907 1732.47 512.002 1733.83 512.002C1735.18 512.002 1736.28 510.907 1736.28 509.552C1736.28 508.198 1735.18 507.102 1733.83 507.102Z" fill="#005AAA"/>
<path d="M1750.99 507.102C1749.64 507.102 1748.54 508.198 1748.54 509.552C1748.54 510.907 1749.64 512.002 1750.99 512.002C1752.35 512.002 1753.44 510.907 1753.44 509.552C1753.44 508.198 1752.35 507.102 1750.99 507.102Z" fill="#005AAA"/>
<path d="M1768.16 507.102C1766.81 507.102 1765.71 508.198 1765.71 509.552C1765.71 510.907 1766.81 512.002 1768.16 512.002C1769.51 512.002 1770.61 510.907 1770.61 509.552C1770.61 508.198 1769.51 507.102 1768.16 507.102Z" fill="#005AAA"/>
<path d="M1785.33 512.008C1786.68 512.008 1787.78 510.913 1787.78 509.559C1787.78 508.204 1786.68 507.109 1785.33 507.109C1783.97 507.109 1782.88 508.204 1782.88 509.559C1782.88 510.913 1783.97 512.008 1785.33 512.008Z" fill="#005AAA"/>
<path d="M1733.83 524.265C1732.47 524.265 1731.38 525.36 1731.38 526.715C1731.38 528.069 1732.47 529.165 1733.83 529.165C1735.18 529.165 1736.28 528.069 1736.28 526.715C1736.28 525.36 1735.18 524.265 1733.83 524.265Z" fill="#005AAA"/>
<path d="M1750.99 524.265C1749.64 524.265 1748.54 525.36 1748.54 526.714C1748.54 528.069 1749.64 529.164 1750.99 529.164C1752.35 529.164 1753.44 528.069 1753.44 526.714C1753.44 525.36 1752.35 524.265 1750.99 524.265Z" fill="#005AAA"/>
<path d="M1768.16 524.265C1766.81 524.265 1765.71 525.36 1765.71 526.714C1765.71 528.069 1766.81 529.164 1768.16 529.164C1769.51 529.164 1770.61 528.069 1770.61 526.714C1770.61 525.36 1769.51 524.265 1768.16 524.265Z" fill="#005AAA"/>
<path d="M1785.33 524.265C1783.97 524.265 1782.88 525.36 1782.88 526.714C1782.88 528.069 1783.97 529.164 1785.33 529.164C1786.68 529.164 1787.78 528.069 1787.78 526.714C1787.78 525.36 1786.68 524.265 1785.33 524.265Z" fill="#005AAA"/>
<path d="M1733.83 541.427C1732.47 541.427 1731.38 542.522 1731.38 543.877C1731.38 545.232 1732.47 546.327 1733.83 546.327C1735.18 546.327 1736.28 545.232 1736.28 543.877C1736.28 542.522 1735.18 541.427 1733.83 541.427Z" fill="#005AAA"/>
<path d="M1750.99 541.427C1749.64 541.427 1748.54 542.522 1748.54 543.877C1748.54 545.232 1749.64 546.327 1750.99 546.327C1752.35 546.327 1753.44 545.232 1753.44 543.877C1753.44 542.522 1752.35 541.427 1750.99 541.427Z" fill="#005AAA"/>
<path d="M1768.16 541.427C1766.81 541.427 1765.71 542.522 1765.71 543.877C1765.71 545.232 1766.81 546.327 1768.16 546.327C1769.51 546.327 1770.61 545.232 1770.61 543.877C1770.61 542.522 1769.51 541.427 1768.16 541.427Z" fill="#005AAA"/>
<path d="M1785.33 541.427C1783.97 541.427 1782.88 542.522 1782.88 543.877C1782.88 545.232 1783.97 546.327 1785.33 546.327C1786.68 546.327 1787.78 545.232 1787.78 543.877C1787.78 542.522 1786.68 541.427 1785.33 541.427Z" fill="#005AAA"/>
<path d="M1733.83 558.583C1732.47 558.583 1731.38 559.678 1731.38 561.033C1731.38 562.387 1732.47 563.483 1733.83 563.483C1735.18 563.483 1736.28 562.387 1736.28 561.033C1736.28 559.685 1735.18 558.583 1733.83 558.583Z" fill="#005AAA"/>
<path d="M1750.99 558.583C1749.64 558.583 1748.54 559.678 1748.54 561.033C1748.54 562.387 1749.64 563.483 1750.99 563.483C1752.35 563.483 1753.44 562.387 1753.44 561.033C1753.44 559.685 1752.35 558.583 1750.99 558.583Z" fill="#005AAA"/>
<path d="M1768.16 558.583C1766.81 558.583 1765.71 559.678 1765.71 561.033C1765.71 562.387 1766.81 563.483 1768.16 563.483C1769.51 563.483 1770.61 562.387 1770.61 561.033C1770.61 559.685 1769.51 558.583 1768.16 558.583Z" fill="#005AAA"/>
<path d="M1785.33 558.583C1783.97 558.583 1782.88 559.678 1782.88 561.033C1782.88 562.387 1783.97 563.483 1785.33 563.483C1786.68 563.483 1787.78 562.387 1787.78 561.033C1787.78 559.685 1786.68 558.583 1785.33 558.583Z" fill="#005AAA"/>
<path d="M40 536.083C45.5229 536.083 50.1005 540.604 49.0033 546.016C48.3663 549.159 47.4269 552.24 46.194 555.217C43.6812 561.283 39.9983 566.795 35.3553 571.438C30.7124 576.081 25.2005 579.764 19.1342 582.277C16.1575 583.51 13.076 584.449 9.93353 585.086C4.52077 586.183 1.95703e-07 581.606 4.37114e-07 576.083L1.74846e-06 546.083C1.98987e-06 540.56 4.47715 536.083 10 536.083H40Z" fill="#FFD66B"/>
<path d="M703.064 53.5283L694.948 48.3628C694.3 47.948 693.451 48.4146 693.451 49.1859V60.2494C693.451 61.0466 694.352 61.5003 694.993 61.0336L703.109 55.1357C703.673 54.7274 703.647 53.8978 703.064 53.5283Z" fill="#DCE0E2"/>
<path d="M722.726 53.5283L714.61 48.3627C713.962 47.9479 713.113 48.4146 713.113 49.1858V60.2493C713.113 61.0465 714.014 61.5002 714.656 61.0336L722.772 55.1356C723.329 54.7273 723.303 53.8977 722.726 53.5283Z" fill="#DCE0E2"/>
<path d="M742.386 53.5283L734.27 48.3627C733.622 47.9479 732.773 48.4146 732.773 49.1858V60.2493C732.773 61.0465 733.674 61.5002 734.315 61.0336L742.431 55.1356C742.989 54.7273 742.963 53.8977 742.386 53.5283Z" fill="#DCE0E2"/>
<path d="M762.047 53.5283L753.932 48.3627C753.283 47.9479 752.434 48.4146 752.434 49.1858V60.2493C752.434 61.0465 753.335 61.5002 753.977 61.0336L762.093 55.1356C762.65 54.7273 762.624 53.8977 762.047 53.5283Z" fill="#DCE0E2"/>
<path d="M781.709 53.5283L773.593 48.3627C772.945 47.9479 772.096 48.4146 772.096 49.1858V60.2493C772.096 61.0465 772.997 61.5002 773.639 61.0336L781.754 55.1356C782.312 54.7273 782.286 53.8977 781.709 53.5283Z" fill="#DCE0E2"/>
<path d="M1676.8 61.4089C1676.72 60.9167 1676.31 60.5404 1675.81 60.5332C1674.02 60.5042 1669.65 59.9252 1665.25 55.5248C1659.02 49.3006 1656.09 48.2078 1652.24 48.2078C1648.01 48.2078 1643.39 50.4948 1639.23 54.6491C1635.03 58.8541 1631.79 60.4897 1627.67 60.4897C1623.45 60.4897 1619.16 56.8276 1616.98 54.6491C1614.75 52.42 1609.16 48.2078 1603.97 48.2078C1599.49 48.2078 1595.16 51.4719 1591.68 54.0918L1591.07 54.555C1590.4 55.0544 1589.76 55.5827 1589.15 56.0966C1586.61 58.2172 1584.19 60.2292 1579.47 60.468C1578.94 60.497 1578.51 60.9457 1578.51 61.4813C1578.51 62.0675 1579 62.5307 1579.59 62.5018C1584.99 62.2195 1587.88 59.8022 1590.45 57.6599C1591.07 57.1388 1591.66 56.6466 1592.28 56.1834L1592.91 55.713C1596.14 53.274 1600.17 50.2415 1603.96 50.2415C1607.67 50.2415 1612.69 53.2523 1615.53 56.0821C1617.93 58.485 1622.71 62.5235 1627.66 62.5235C1632.32 62.5235 1636.09 60.6562 1640.67 56.0821C1644.44 52.3114 1648.54 50.2415 1652.23 50.2415C1655.16 50.2415 1657.55 50.7119 1663.8 56.9651C1668.69 61.8576 1673.6 62.5452 1675.78 62.5741C1676.41 62.5886 1676.89 62.0313 1676.8 61.4089Z" fill="#FFD66B"/>
<path d="M1676.8 37.5831C1676.72 37.091 1676.31 36.7147 1675.81 36.7074C1674.02 36.6785 1669.65 36.0995 1665.25 31.6991C1659.02 25.4749 1656.09 24.382 1652.24 24.382C1648.01 24.382 1643.39 26.6691 1639.23 30.8234C1635.03 35.0283 1631.79 36.664 1627.67 36.664C1623.45 36.664 1619.16 33.0018 1616.98 30.8234C1614.75 28.5942 1609.16 24.382 1603.97 24.382C1599.49 24.382 1595.16 27.6461 1591.68 30.2661L1591.07 30.7293C1590.4 31.2287 1589.76 31.757 1589.15 32.2708C1586.61 34.3914 1584.19 36.4034 1579.47 36.6423C1578.94 36.6712 1578.51 37.12 1578.51 37.6555C1578.51 38.2418 1579 38.705 1579.59 38.676C1584.99 38.3937 1587.88 35.9764 1590.45 33.8341C1591.07 33.313 1591.66 32.8209 1592.28 32.3577L1592.91 31.8873C1596.14 29.4482 1600.17 26.4157 1603.96 26.4157C1607.67 26.4157 1612.69 29.4265 1615.53 32.2564C1617.93 34.6592 1622.71 38.6977 1627.66 38.6977C1632.32 38.6977 1636.09 36.8304 1640.67 32.2564C1644.44 28.4857 1648.54 26.4157 1652.23 26.4157C1655.16 26.4157 1657.55 26.8862 1663.8 33.1393C1668.69 38.0246 1673.6 38.7122 1675.78 38.7484C1676.41 38.7629 1676.89 38.2056 1676.8 37.5831Z" fill="#FFD66B"/>
<path d="M1579.59 14.8575C1584.99 14.5752 1587.88 12.1579 1590.45 10.0156C1591.07 9.4945 1591.66 9.00236 1592.28 8.53916L1592.91 8.06872C1596.14 5.6297 1600.17 2.5972 1603.96 2.5972C1607.67 2.5972 1612.69 5.60799 1615.53 8.43783C1617.93 10.8407 1622.71 14.8792 1627.66 14.8792C1632.32 14.8792 1636.09 13.0119 1640.67 8.43783C1644.44 4.66712 1648.54 2.5972 1652.23 2.5972C1655.16 2.5972 1657.55 3.06764 1663.8 9.3208C1668.69 14.2061 1673.6 14.8936 1675.78 14.9298C1676.4 14.9371 1676.89 14.3798 1676.8 13.7646C1676.72 13.2725 1676.31 12.8961 1675.81 12.8889C1674.02 12.8599 1669.65 12.2809 1665.25 7.88055C1659.02 1.65633 1656.09 0.563477 1652.24 0.563477C1648.01 0.563477 1643.39 2.85051 1639.23 7.00481C1635.03 11.2098 1631.78 12.8454 1627.67 12.8454C1623.45 12.8454 1619.16 9.18329 1616.97 7.00481C1614.74 4.77568 1609.16 0.563477 1603.97 0.563477C1599.49 0.563477 1595.16 3.82757 1591.68 6.44753L1591.07 6.91073C1590.4 7.41011 1589.76 7.93845 1589.15 8.45231C1586.61 10.5729 1584.19 12.5849 1579.47 12.8237C1578.94 12.8527 1578.51 13.3014 1578.51 13.837C1578.51 14.4232 1579.01 14.8864 1579.59 14.8575Z" fill="#FFD66B"/>
</svg>
