<svg width="184" height="213" viewBox="0 0 184 213" fill="none" xmlns="http://www.w3.org/2000/svg">
<g filter="url(#filter0_dddddd_277_145)">
<path d="M103.932 18.7375C103.565 13.9651 101.343 10.9744 99.3828 8.33526C97.5677 5.89201 96 3.78214 96 0.669761C96 0.419762 95.86 0.191262 95.638 0.0766991C95.4153 -0.0385508 95.1477 -0.0196758 94.9453 0.127449C92.0013 2.23407 89.5449 5.78463 88.6869 9.17238C88.0912 11.5309 88.0124 14.1824 88.0013 15.9336C85.2826 15.3529 84.6667 11.2862 84.6602 11.2419C84.6296 11.0309 84.5007 10.8474 84.3132 10.7471C84.1237 10.6482 83.9011 10.641 83.709 10.7361C83.5664 10.8051 80.2096 12.5107 80.0143 19.3208C80.0006 19.5473 80 19.7746 80 20.0018C80 26.6178 85.3834 32.0009 92 32.0009C92.0091 32.0016 92.0189 32.0029 92.0267 32.0009C92.0293 32.0009 92.0319 32.0009 92.0351 32.0009C98.6354 31.982 104 26.6061 104 20.0018C104 19.6691 103.932 18.7375 103.932 18.7375Z" fill="#FF6B00"/>
</g>
<defs>
<filter id="filter0_dddddd_277_145" x="0" y="0.00195312" width="184" height="212" filterUnits="userSpaceOnUse" color-interpolation-filters="sRGB">
<feFlood flood-opacity="0" result="BackgroundImageFix"/>
<feColorMatrix in="SourceAlpha" type="matrix" values="0 0 0 0 0 0 0 0 0 0 0 0 0 0 0 0 0 0 127 0" result="hardAlpha"/>
<feOffset dy="2.76726"/>
<feGaussianBlur stdDeviation="1.1069"/>
<feColorMatrix type="matrix" values="0 0 0 0 1 0 0 0 0 0.419608 0 0 0 0 0 0 0 0 0.0477948 0"/>
<feBlend mode="normal" in2="BackgroundImageFix" result="effect1_dropShadow_277_145"/>
<feColorMatrix in="SourceAlpha" type="matrix" values="0 0 0 0 0 0 0 0 0 0 0 0 0 0 0 0 0 0 127 0" result="hardAlpha"/>
<feOffset dy="6.6501"/>
<feGaussianBlur stdDeviation="2.66004"/>
<feColorMatrix type="matrix" values="0 0 0 0 1 0 0 0 0 0.419608 0 0 0 0 0 0 0 0 0.0686618 0"/>
<feBlend mode="normal" in2="effect1_dropShadow_277_145" result="effect2_dropShadow_277_145"/>
<feColorMatrix in="SourceAlpha" type="matrix" values="0 0 0 0 0 0 0 0 0 0 0 0 0 0 0 0 0 0 127 0" result="hardAlpha"/>
<feOffset dy="12.5216"/>
<feGaussianBlur stdDeviation="5.00862"/>
<feColorMatrix type="matrix" values="0 0 0 0 1 0 0 0 0 0.419608 0 0 0 0 0 0 0 0 0.085 0"/>
<feBlend mode="normal" in2="effect2_dropShadow_277_145" result="effect3_dropShadow_277_145"/>
<feColorMatrix in="SourceAlpha" type="matrix" values="0 0 0 0 0 0 0 0 0 0 0 0 0 0 0 0 0 0 127 0" result="hardAlpha"/>
<feOffset dy="22.3363"/>
<feGaussianBlur stdDeviation="8.93452"/>
<feColorMatrix type="matrix" values="0 0 0 0 1 0 0 0 0 0.419608 0 0 0 0 0 0 0 0 0.101338 0"/>
<feBlend mode="normal" in2="effect3_dropShadow_277_145" result="effect4_dropShadow_277_145"/>
<feColorMatrix in="SourceAlpha" type="matrix" values="0 0 0 0 0 0 0 0 0 0 0 0 0 0 0 0 0 0 127 0" result="hardAlpha"/>
<feOffset dy="41.7776"/>
<feGaussianBlur stdDeviation="16.711"/>
<feColorMatrix type="matrix" values="0 0 0 0 1 0 0 0 0 0.419608 0 0 0 0 0 0 0 0 0.122205 0"/>
<feBlend mode="normal" in2="effect4_dropShadow_277_145" result="effect5_dropShadow_277_145"/>
<feColorMatrix in="SourceAlpha" type="matrix" values="0 0 0 0 0 0 0 0 0 0 0 0 0 0 0 0 0 0 127 0" result="hardAlpha"/>
<feOffset dy="100"/>
<feGaussianBlur stdDeviation="40"/>
<feColorMatrix type="matrix" values="0 0 0 0 1 0 0 0 0 0.419608 0 0 0 0 0 0 0 0 0.17 0"/>
<feBlend mode="normal" in2="effect5_dropShadow_277_145" result="effect6_dropShadow_277_145"/>
<feBlend mode="normal" in="SourceGraphic" in2="effect6_dropShadow_277_145" result="shape"/>
</filter>
</defs>
</svg>
