<svg width="31" height="29" viewBox="0 0 31 29" fill="none" xmlns="http://www.w3.org/2000/svg">
<path d="M29.9625 10.8429C29.8339 10.4143 29.4054 10.0714 28.9339 10.0714L19.2482 9.85714L16.0339 0.728571C15.9054 0.3 15.4768 0 15.0054 0C14.5339 0 14.1054 0.3 13.9768 0.728571L10.7625 9.85714L1.07679 10.0714C0.605357 10.0714 0.176786 10.3714 0.0482143 10.8429C-0.0803571 11.2714 0.0482143 11.7857 0.433929 12.0857L8.14821 17.9571L5.3625 27.2143C5.23393 27.6857 5.40536 28.1571 5.79107 28.4143C6.17679 28.6714 6.69107 28.7143 7.07679 28.4143L15.0054 22.9286L22.9768 28.4143C23.3625 28.6714 23.8768 28.6714 24.2625 28.4143C24.6482 28.1571 24.8196 27.6429 24.6911 27.2143L21.8625 17.9571L29.5768 12.0857C29.9625 11.7857 30.0911 11.3143 29.9625 10.8429Z" fill="#FFD66B"/>
</svg>
